<mxfile host="app.diagrams.net" modified="2024-03-26T16:56:21.349Z" agent="Mozilla/5.0 (Windows NT 10.0; Win64; x64) AppleWebKit/537.36 (KHTML, like Gecko) Chrome/122.0.0.0 Safari/537.36" etag="pAG8niOf7M6GUQOnjP6p" version="24.2.0" type="device">
  <diagram name="Page-1" id="0cxLK6B1qZ-80W-4j8hx">
    <mxGraphModel dx="1221" dy="1030" grid="0" gridSize="10" guides="1" tooltips="1" connect="1" arrows="1" fold="1" page="0" pageScale="1" pageWidth="850" pageHeight="1100" math="0" shadow="0">
      <root>
        <mxCell id="0" />
        <mxCell id="1" parent="0" />
        <mxCell id="Iu25lgEWChFgaFbriD92-103" value="&lt;font style=&quot;font-size: 18px;&quot;&gt;Logits&lt;/font&gt;" style="rounded=1;whiteSpace=wrap;html=1;fillColor=#f5f5f5;gradientColor=#b3b3b3;strokeColor=#666666;fontSize=14;fontStyle=1;rotation=-90;" parent="1" vertex="1">
          <mxGeometry x="402" y="240.25" width="396" height="35" as="geometry" />
        </mxCell>
        <mxCell id="Iu25lgEWChFgaFbriD92-110" value="" style="strokeWidth=2;html=1;shape=mxgraph.flowchart.annotation_1;align=left;pointerEvents=1;direction=south;fontSize=14;fontStyle=1" parent="1" vertex="1">
          <mxGeometry x="399" y="29" width="225.87" height="50" as="geometry" />
        </mxCell>
        <mxCell id="Iu25lgEWChFgaFbriD92-145" value="&lt;font style=&quot;font-size: 48px;&quot;&gt;...&lt;/font&gt;" style="text;html=1;align=center;verticalAlign=middle;resizable=0;points=[];autosize=1;strokeColor=none;fillColor=none;fontSize=14;fontStyle=1" parent="1" vertex="1">
          <mxGeometry x="159" y="63" width="60" height="70" as="geometry" />
        </mxCell>
        <mxCell id="WK32DhDvXuLAIViGbRyr-145" value="" style="strokeWidth=2;html=1;shape=mxgraph.flowchart.annotation_1;align=left;pointerEvents=1;direction=south;fontSize=14;fontStyle=1" parent="1" vertex="1">
          <mxGeometry x="103" y="29" width="239" height="50" as="geometry" />
        </mxCell>
        <mxCell id="aZ4RtvFDJK5GRtdwdaWC-2" value="&lt;font style=&quot;font-size: 18px;&quot;&gt;Input_ids&lt;/font&gt;" style="rounded=1;whiteSpace=wrap;html=1;fillColor=#f5f5f5;gradientColor=#b3b3b3;strokeColor=#666666;fontSize=14;fontStyle=1;rotation=-90;" parent="1" vertex="1">
          <mxGeometry x="96.84" y="412" width="110.87" height="35" as="geometry" />
        </mxCell>
        <mxCell id="aZ4RtvFDJK5GRtdwdaWC-3" value="&lt;font style=&quot;font-size: 48px;&quot;&gt;...&lt;/font&gt;" style="text;html=1;align=center;verticalAlign=middle;resizable=0;points=[];autosize=1;strokeColor=none;fillColor=none;fontSize=14;fontStyle=1" parent="1" vertex="1">
          <mxGeometry x="529.7500000000001" y="63" width="60" height="70" as="geometry" />
        </mxCell>
        <mxCell id="SgD7xv6A9KrI4WXc54sU-36" value="&lt;font style=&quot;font-size: 48px;&quot;&gt;...&lt;/font&gt;" style="text;html=1;align=center;verticalAlign=middle;resizable=0;points=[];autosize=1;strokeColor=none;fillColor=none;fontSize=14;fontStyle=1" parent="1" vertex="1">
          <mxGeometry x="527.0000000000001" y="308" width="60" height="70" as="geometry" />
        </mxCell>
        <mxCell id="07rTELGIsbOFbsh4Nyog-1" value="&lt;font style=&quot;font-size: 18px;&quot;&gt;token_type_ids&lt;/font&gt;" style="rounded=1;whiteSpace=wrap;html=1;fillColor=#f5f5f5;gradientColor=#b3b3b3;strokeColor=#666666;fontSize=14;fontStyle=1;rotation=-90;" parent="1" vertex="1">
          <mxGeometry x="74" y="266.53" width="156.55" height="35" as="geometry" />
        </mxCell>
        <mxCell id="07rTELGIsbOFbsh4Nyog-2" value="&lt;span style=&quot;font-size: 18px;&quot;&gt;attention_mask&lt;/span&gt;" style="rounded=1;whiteSpace=wrap;html=1;fillColor=#f5f5f5;gradientColor=#b3b3b3;strokeColor=#666666;fontSize=14;fontStyle=1;rotation=-90;" parent="1" vertex="1">
          <mxGeometry x="74" y="100.99999999999997" width="156.55" height="35" as="geometry" />
        </mxCell>
        <mxCell id="-583Apwpy-uKcxM53sTH-1" style="edgeStyle=orthogonalEdgeStyle;rounded=0;orthogonalLoop=1;jettySize=auto;html=1;exitX=0.5;exitY=1;exitDx=0;exitDy=0;entryX=-0.043;entryY=0.441;entryDx=0;entryDy=0;entryPerimeter=0;" parent="1" source="07rTELGIsbOFbsh4Nyog-4" target="-583Apwpy-uKcxM53sTH-13" edge="1">
          <mxGeometry relative="1" as="geometry">
            <mxPoint x="290.1111145019531" y="109" as="targetPoint" />
          </mxGeometry>
        </mxCell>
        <mxCell id="07rTELGIsbOFbsh4Nyog-4" value="&lt;font style=&quot;font-size: 18px;&quot;&gt;Cast&lt;/font&gt;" style="rounded=1;whiteSpace=wrap;html=1;fillColor=#000000;strokeColor=#2D7600;fontSize=14;fontStyle=1;rotation=-90;fontColor=#ffffff;" parent="1" vertex="1">
          <mxGeometry x="182.0000000000001" y="91" width="90" height="35" as="geometry" />
        </mxCell>
        <mxCell id="07rTELGIsbOFbsh4Nyog-6" value="&lt;font style=&quot;font-size: 48px;&quot;&gt;...&lt;/font&gt;" style="text;html=1;align=center;verticalAlign=middle;resizable=0;points=[];autosize=1;strokeColor=none;fillColor=none;fontSize=14;fontStyle=1" parent="1" vertex="1">
          <mxGeometry x="161" y="245" width="60" height="70" as="geometry" />
        </mxCell>
        <mxCell id="07rTELGIsbOFbsh4Nyog-7" value="&lt;font style=&quot;font-size: 48px;&quot;&gt;...&lt;/font&gt;" style="text;html=1;align=center;verticalAlign=middle;resizable=0;points=[];autosize=1;strokeColor=none;fillColor=none;fontSize=14;fontStyle=1" parent="1" vertex="1">
          <mxGeometry x="161" y="388" width="60" height="70" as="geometry" />
        </mxCell>
        <mxCell id="-583Apwpy-uKcxM53sTH-6" style="edgeStyle=orthogonalEdgeStyle;rounded=0;orthogonalLoop=1;jettySize=auto;html=1;exitX=0.5;exitY=1;exitDx=0;exitDy=0;entryX=-0.027;entryY=0.475;entryDx=0;entryDy=0;entryPerimeter=0;" parent="1" source="07rTELGIsbOFbsh4Nyog-8" target="-583Apwpy-uKcxM53sTH-20" edge="1">
          <mxGeometry relative="1" as="geometry">
            <mxPoint x="285.6666564941406" y="357" as="targetPoint" />
          </mxGeometry>
        </mxCell>
        <mxCell id="07rTELGIsbOFbsh4Nyog-8" value="&lt;font style=&quot;font-size: 18px;&quot;&gt;Add&lt;/font&gt;" style="rounded=1;whiteSpace=wrap;html=1;fillColor=#000000;strokeColor=#2D7600;fontSize=14;fontStyle=1;rotation=-90;fontColor=#ffffff;" parent="1" vertex="1">
          <mxGeometry x="126" y="338" width="208.38" height="35" as="geometry" />
        </mxCell>
        <mxCell id="07rTELGIsbOFbsh4Nyog-10" value="&lt;font style=&quot;font-size: 18px;&quot;&gt;ReduceSum&lt;/font&gt;" style="rounded=1;whiteSpace=wrap;html=1;fillColor=#000000;strokeColor=#2D7600;fontSize=14;fontStyle=1;rotation=-90;fontColor=#ffffff;" parent="1" vertex="1">
          <mxGeometry x="458.12" y="91" width="122.25" height="35" as="geometry" />
        </mxCell>
        <mxCell id="07rTELGIsbOFbsh4Nyog-11" value="&lt;font style=&quot;font-size: 18px;&quot;&gt;Layer Normalization&lt;/font&gt;" style="rounded=1;whiteSpace=wrap;html=1;fillColor=#000000;strokeColor=#2D7600;fontSize=14;fontStyle=1;rotation=-90;fontColor=#ffffff;" parent="1" vertex="1">
          <mxGeometry x="419.75" y="338" width="199" height="35" as="geometry" />
        </mxCell>
        <mxCell id="-583Apwpy-uKcxM53sTH-3" value="&lt;font style=&quot;font-size: 14px;&quot;&gt;Intermediate Layers&lt;/font&gt;" style="text;html=1;align=center;verticalAlign=middle;resizable=0;points=[];autosize=1;strokeColor=none;fillColor=none;fontSize=14;fontStyle=1" parent="1" vertex="1">
          <mxGeometry x="513.75" y="467.49" width="142" height="29" as="geometry" />
        </mxCell>
        <mxCell id="-583Apwpy-uKcxM53sTH-4" value="" style="endArrow=classic;html=1;rounded=0;entryX=0.596;entryY=0.979;entryDx=0;entryDy=0;entryPerimeter=0;" parent="1" target="SgD7xv6A9KrI4WXc54sU-36" edge="1">
          <mxGeometry width="50" height="50" relative="1" as="geometry">
            <mxPoint x="563.75" y="471" as="sourcePoint" />
            <mxPoint x="563.75" y="408" as="targetPoint" />
          </mxGeometry>
        </mxCell>
        <mxCell id="-583Apwpy-uKcxM53sTH-8" value="&lt;font style=&quot;font-size: 18px;&quot;&gt;1st half Partitioned Model&lt;/font&gt;" style="text;html=1;align=center;verticalAlign=middle;resizable=0;points=[];autosize=1;strokeColor=none;fillColor=none;fontSize=14;fontStyle=1" parent="1" vertex="1">
          <mxGeometry x="90.5" y="-5" width="237" height="34" as="geometry" />
        </mxCell>
        <mxCell id="-583Apwpy-uKcxM53sTH-9" value="&lt;font style=&quot;font-size: 18px;&quot;&gt;2nd half Partitioned Model&lt;/font&gt;" style="text;html=1;align=center;verticalAlign=middle;resizable=0;points=[];autosize=1;strokeColor=none;fillColor=none;fontSize=14;fontStyle=1" parent="1" vertex="1">
          <mxGeometry x="388.5" y="-5" width="243" height="34" as="geometry" />
        </mxCell>
        <mxCell id="-583Apwpy-uKcxM53sTH-12" value="&lt;div style=&quot;text-align: start;&quot;&gt;&lt;font color=&quot;#242424&quot;&gt;&lt;span style=&quot;white-space-collapse: preserve;&quot;&gt;attention_mask_int32&lt;/span&gt;&lt;/font&gt;&lt;br&gt;&lt;/div&gt;" style="text;html=1;align=center;verticalAlign=middle;resizable=0;points=[];autosize=1;strokeColor=none;fillColor=none;fontSize=14;fontStyle=1;rotation=0;" parent="1" vertex="1">
          <mxGeometry x="303" y="142" width="151" height="29" as="geometry" />
        </mxCell>
        <mxCell id="-583Apwpy-uKcxM53sTH-13" value="&lt;div style=&quot;text-align: start;&quot;&gt;&lt;font color=&quot;#242424&quot;&gt;&lt;span style=&quot;white-space-collapse: preserve; background-color: rgb(252, 252, 252);&quot;&gt;Output&lt;/span&gt;&lt;/font&gt;&lt;/div&gt;" style="text;html=1;align=center;verticalAlign=middle;resizable=0;points=[];autosize=1;strokeColor=none;fillColor=none;fontSize=14;fontStyle=1;rotation=0;" parent="1" vertex="1">
          <mxGeometry x="288.00000000000006" y="95" width="60" height="29" as="geometry" />
        </mxCell>
        <mxCell id="-583Apwpy-uKcxM53sTH-26" style="edgeStyle=orthogonalEdgeStyle;rounded=0;orthogonalLoop=1;jettySize=auto;html=1;entryX=0.5;entryY=0;entryDx=0;entryDy=0;exitX=1.009;exitY=0.485;exitDx=0;exitDy=0;exitPerimeter=0;" parent="1" source="-583Apwpy-uKcxM53sTH-14" target="07rTELGIsbOFbsh4Nyog-10" edge="1">
          <mxGeometry relative="1" as="geometry">
            <mxPoint x="435" y="108.5" as="sourcePoint" />
          </mxGeometry>
        </mxCell>
        <mxCell id="-583Apwpy-uKcxM53sTH-14" value="&lt;div style=&quot;text-align: start;&quot;&gt;&lt;font color=&quot;#242424&quot;&gt;&lt;span style=&quot;white-space-collapse: preserve; background-color: rgb(252, 252, 252);&quot;&gt;Input&lt;/span&gt;&lt;/font&gt;&lt;/div&gt;" style="text;html=1;align=center;verticalAlign=middle;resizable=0;points=[];autosize=1;strokeColor=none;fillColor=none;fontSize=14;fontStyle=1;rotation=0;" parent="1" vertex="1">
          <mxGeometry x="423.00000000000006" y="94" width="49" height="29" as="geometry" />
        </mxCell>
        <mxCell id="-583Apwpy-uKcxM53sTH-15" value="" style="edgeStyle=orthogonalEdgeStyle;rounded=0;orthogonalLoop=1;jettySize=auto;html=1;" parent="1" edge="1">
          <mxGeometry relative="1" as="geometry">
            <Array as="points">
              <mxPoint x="360" y="139" />
              <mxPoint x="446" y="139" />
              <mxPoint x="446" y="121" />
            </Array>
            <mxPoint x="377" y="150" as="sourcePoint" />
            <mxPoint x="446" y="121" as="targetPoint" />
          </mxGeometry>
        </mxCell>
        <mxCell id="-583Apwpy-uKcxM53sTH-16" style="edgeStyle=orthogonalEdgeStyle;rounded=0;orthogonalLoop=1;jettySize=auto;html=1;entryX=0.392;entryY=1.004;entryDx=0;entryDy=0;entryPerimeter=0;" parent="1" edge="1">
          <mxGeometry relative="1" as="geometry">
            <mxPoint x="315" y="119" as="targetPoint" />
            <Array as="points">
              <mxPoint x="377" y="151" />
              <mxPoint x="377" y="139" />
              <mxPoint x="315" y="139" />
            </Array>
            <mxPoint x="377" y="151" as="sourcePoint" />
          </mxGeometry>
        </mxCell>
        <mxCell id="-583Apwpy-uKcxM53sTH-19" value="&lt;div style=&quot;text-align: start;&quot;&gt;&lt;span style=&quot;background-color: initial; white-space-collapse: preserve;&quot;&gt;&lt;font color=&quot;#242424&quot;&gt;/roberta/embeddings/Add_2_output_0&lt;/font&gt;&lt;/span&gt;&lt;/div&gt;" style="text;html=1;align=center;verticalAlign=middle;resizable=0;points=[];autosize=1;strokeColor=none;fillColor=none;fontSize=14;fontStyle=1;rotation=0;" parent="1" vertex="1">
          <mxGeometry x="248" y="395" width="253" height="29" as="geometry" />
        </mxCell>
        <mxCell id="-583Apwpy-uKcxM53sTH-20" value="&lt;div style=&quot;text-align: start;&quot;&gt;&lt;font color=&quot;#242424&quot;&gt;&lt;span style=&quot;white-space-collapse: preserve; background-color: rgb(252, 252, 252);&quot;&gt;Output&lt;/span&gt;&lt;/font&gt;&lt;/div&gt;" style="text;html=1;align=center;verticalAlign=middle;resizable=0;points=[];autosize=1;strokeColor=none;fillColor=none;fontSize=14;fontStyle=1;rotation=0;" parent="1" vertex="1">
          <mxGeometry x="285.00000000000006" y="342.45" width="60" height="29" as="geometry" />
        </mxCell>
        <mxCell id="-583Apwpy-uKcxM53sTH-22" value="" style="edgeStyle=orthogonalEdgeStyle;rounded=0;orthogonalLoop=1;jettySize=auto;html=1;" parent="1" target="-583Apwpy-uKcxM53sTH-31" edge="1">
          <mxGeometry relative="1" as="geometry">
            <Array as="points">
              <mxPoint x="380" y="388" />
              <mxPoint x="447" y="388" />
            </Array>
            <mxPoint x="380" y="401" as="sourcePoint" />
            <mxPoint x="447.0000000000001" y="368.45000000000005" as="targetPoint" />
          </mxGeometry>
        </mxCell>
        <mxCell id="-583Apwpy-uKcxM53sTH-23" style="edgeStyle=orthogonalEdgeStyle;rounded=0;orthogonalLoop=1;jettySize=auto;html=1;entryX=0.392;entryY=1.004;entryDx=0;entryDy=0;entryPerimeter=0;" parent="1" edge="1">
          <mxGeometry relative="1" as="geometry">
            <mxPoint x="310.59" y="368" as="targetPoint" />
            <Array as="points">
              <mxPoint x="380" y="400" />
              <mxPoint x="380" y="388" />
              <mxPoint x="311" y="388" />
            </Array>
            <mxPoint x="380" y="399" as="sourcePoint" />
          </mxGeometry>
        </mxCell>
        <mxCell id="-583Apwpy-uKcxM53sTH-32" style="edgeStyle=orthogonalEdgeStyle;rounded=0;orthogonalLoop=1;jettySize=auto;html=1;entryX=0.5;entryY=0;entryDx=0;entryDy=0;" parent="1" source="-583Apwpy-uKcxM53sTH-31" target="07rTELGIsbOFbsh4Nyog-11" edge="1">
          <mxGeometry relative="1" as="geometry" />
        </mxCell>
        <mxCell id="-583Apwpy-uKcxM53sTH-31" value="&lt;div style=&quot;text-align: start;&quot;&gt;&lt;font color=&quot;#242424&quot;&gt;&lt;span style=&quot;white-space-collapse: preserve; background-color: rgb(252, 252, 252);&quot;&gt;Input&lt;/span&gt;&lt;/font&gt;&lt;/div&gt;" style="text;html=1;align=center;verticalAlign=middle;resizable=0;points=[];autosize=1;strokeColor=none;fillColor=none;fontSize=14;fontStyle=1;rotation=0;" parent="1" vertex="1">
          <mxGeometry x="423.00000000000006" y="341" width="49" height="29" as="geometry" />
        </mxCell>
      </root>
    </mxGraphModel>
  </diagram>
</mxfile>
